<?xml version="1.0" encoding="utf-8"?>
<!-- Generator: Adobe Illustrator 16.0.0, SVG Export Plug-In . SVG Version: 6.00 Build 0)  -->
<!DOCTYPE svg PUBLIC "-//W3C//DTD SVG 1.1//EN" "http://www.w3.org/Graphics/SVG/1.1/DTD/svg11.dtd">
<svg version="1.1" id="Capa_1" xmlns="http://www.w3.org/2000/svg" xmlns:xlink="http://www.w3.org/1999/xlink" x="0px" y="0px"
	 width="185.756px" height="64.83px" viewBox="0 0 185.756 64.83" enable-background="new 0 0 185.756 64.83" xml:space="preserve">
<g>
	<path d="M0,39.444c0-1.441,0.23-3.312,0.69-5.614c0.459-2.301,1.06-4.783,1.8-7.444c0.74-2.662,1.59-5.383,2.55-8.166
		c0.96-2.781,1.94-5.393,2.94-7.835c1-2.441,1.98-4.583,2.94-6.424c0.96-1.84,1.82-3.16,2.58-3.961c0.399,0.041,0.93,0.19,1.59,0.45
		c0.66,0.261,1.329,0.57,2.01,0.93c0.68,0.36,1.299,0.75,1.86,1.17c0.56,0.42,0.92,0.81,1.08,1.17
		c-1.161,1.04-2.31,2.609-3.45,4.707c-1.14,2.098-2.241,4.487-3.3,7.165c-1.06,2.678-2.05,5.507-2.97,8.484
		c-0.921,2.979-1.721,5.867-2.4,8.664c-0.68,2.799-1.21,5.397-1.59,7.795c-0.38,2.397-0.57,4.336-0.57,5.815
		c0,0.679,0.06,1.099,0.18,1.259c-0.88,0-1.521-0.13-1.92-0.39c-0.4-0.262-0.71-0.541-0.93-0.841c-0.221-0.3-0.42-0.601-0.6-0.9
		c-0.18-0.301-0.45-0.531-0.81-0.691c-0.28-0.12-0.521-0.4-0.72-0.84c-0.201-0.441-0.37-0.932-0.51-1.471
		c-0.141-0.54-0.25-1.091-0.33-1.652C0.04,40.265,0,39.805,0,39.444z"/>
	<path d="M25.56,13.77c1.04,0.321,2.02,1.03,2.94,2.13c0.92,1.101,1.6,2.31,2.04,3.63c-0.44,1.08-1.12,2.38-2.04,3.9
		c-0.92,1.521-1.84,3.07-2.76,4.65c-0.921,1.581-1.75,3.081-2.49,4.5c-0.741,1.42-1.17,2.59-1.29,3.51
		c0.64-0.68,1.35-1.47,2.13-2.37c0.78-0.9,1.54-1.8,2.28-2.7c0.74-0.9,1.43-1.719,2.07-2.46c0.64-0.74,1.14-1.29,1.5-1.65
		c0.759-0.8,1.66-1.729,2.7-2.79c1.04-1.06,2.13-2.06,3.27-3c1.14-0.939,2.289-1.74,3.45-2.4c1.16-0.66,2.22-0.99,3.18-0.99
		c1.04,0,1.91,0.351,2.61,1.05c0.7,0.7,1.25,1.431,1.65,2.19c0,0.081-0.15,0.19-0.45,0.33c-0.3,0.141-0.73,0.53-1.29,1.17
		c-0.561,0.72-1.19,1.71-1.89,2.97c-0.7,1.26-1.38,2.621-2.04,4.08c-0.66,1.461-1.21,2.95-1.65,4.47c-0.44,1.521-0.66,2.9-0.66,4.14
		c0,1,0.129,1.641,0.39,1.92c0.26,0.28,0.63,0.42,1.11,0.42c0.44,0,0.9-0.1,1.38-0.3c0.48-0.2,0.859-0.3,1.14-0.3
		c0.16,0.081,0.29,0.25,0.39,0.51c0.1,0.261,0.15,0.491,0.15,0.69c-0.32,0.28-0.7,0.561-1.14,0.84c-0.441,0.28-0.9,0.54-1.38,0.78
		c-0.48,0.24-0.951,0.44-1.41,0.6c-0.46,0.16-0.87,0.24-1.23,0.24c-1.161,0-2.11-0.171-2.85-0.51c-0.741-0.339-1.32-0.789-1.74-1.35
		c-0.42-0.56-0.71-1.23-0.87-2.01c-0.161-0.78-0.24-1.61-0.24-2.49c0-0.48,0.04-1.02,0.12-1.62c0.08-0.6,0.24-1.31,0.48-2.13
		c0.24-0.819,0.579-1.8,1.02-2.94c0.439-1.14,0.999-2.51,1.68-4.11c-0.081,0-0.621,0.28-1.62,0.84c-1,0.561-2.081,1.42-3.24,2.58
		c-1.88,1.8-3.57,3.581-5.07,5.34c-1.5,1.761-3.03,3.72-4.59,5.88c-0.88,1.24-1.65,2.289-2.31,3.15c-0.66,0.86-1.23,1.43-1.71,1.71
		c-0.84-0.48-1.46-1.15-1.86-2.01c-0.4-0.861-0.7-1.75-0.9-2.67c0-0.759,0.11-1.719,0.33-2.88c0.219-1.16,0.52-2.45,0.9-3.87
		c0.38-1.419,0.85-2.91,1.41-4.47c0.56-1.56,1.179-3.12,1.86-4.68c1.52-3.52,2.91-6.279,4.17-8.28
		C24.45,15.01,25.239,13.931,25.56,13.77z"/>
	<path d="M68.939,18.9c-0.041,0.761-0.17,1.551-0.39,2.37c-0.22,0.82-0.49,1.56-0.81,2.22c-0.32,0.66-0.66,1.21-1.02,1.65
		c-0.36,0.44-0.7,0.66-1.02,0.66c-0.44-0.04-0.7-0.339-0.78-0.9c0-0.12,0.05-0.309,0.15-0.57c0.1-0.26,0.21-0.549,0.33-0.87
		c0.12-0.319,0.229-0.639,0.33-0.96c0.099-0.319,0.15-0.6,0.15-0.84c0-0.56-0.13-1.029-0.39-1.41c-0.26-0.379-0.61-0.57-1.05-0.57
		c-1.6,0-2.82,0.996-3.66,2.986c-0.84,1.99-1.26,4.917-1.26,8.778c0,0.398,0.02,0.638,0.06,0.716c0.84,0,1.59,0,2.25,0
		c0.66,0,1.31,0,1.95,0c0.04,0.08,0.06,0.239,0.06,0.477c0,0.359-0.081,0.618-0.24,0.776c-0.921,0.2-1.65,0.369-2.19,0.508
		c-0.54,0.14-0.951,0.269-1.23,0.388c-0.28,0.12-0.45,0.25-0.51,0.388c-0.06,0.14-0.09,0.329-0.09,0.567
		c0,0.319,0.009,0.637,0.03,0.955c0.02,0.319,0.03,0.716,0.03,1.194c0,3.344-0.911,6.034-2.73,8.071
		c-1.821,2.036-4.35,3.215-7.59,3.535c-0.561-0.04-1.14-0.201-1.74-0.48c-0.6-0.28-1.17-0.64-1.71-1.08
		c-0.54-0.44-1.011-0.93-1.41-1.47c-0.4-0.54-0.681-1.09-0.84-1.65c0-1.532,0.319-2.993,0.96-4.384
		c0.639-1.391,1.509-2.62,2.61-3.688c1.1-1.068,2.4-1.935,3.9-2.601c1.5-0.665,3.129-0.998,4.89-0.998
		c0-1.004-0.101-1.988-0.3-2.952c-0.2-0.963-0.41-1.898-0.63-2.802c-0.22-0.903-0.43-1.788-0.63-2.652
		c-0.201-0.864-0.3-1.718-0.3-2.562c0-1.083,0.219-2.158,0.66-3.223c0.44-1.065,1.02-2.049,1.74-2.953
		c0.72-0.904,1.56-1.676,2.52-2.319s1.959-1.084,3-1.327c0.439,0.12,1.029,0.471,1.77,1.05c0.74,0.58,1.47,1.23,2.19,1.95
		c0.72,0.72,1.359,1.451,1.92,2.19C68.479,17.811,68.819,18.42,68.939,18.9z M49.139,46.26c0.96-0.4,1.869-0.981,2.73-1.74
		c0.859-0.76,1.609-1.62,2.25-2.58c0.639-0.96,1.149-1.98,1.53-3.06c0.38-1.08,0.57-2.139,0.57-3.18c-0.8,0.12-1.68,0.49-2.64,1.11
		c-0.96,0.621-1.86,1.36-2.7,2.22c-0.84,0.86-1.54,1.75-2.1,2.67c-0.561,0.92-0.84,1.719-0.84,2.4
		C47.939,44.979,48.338,45.7,49.139,46.26z"/>
	<path d="M72.539,19.89c-0.201-0.24-0.38-0.75-0.54-1.53c-0.16-0.78-0.24-1.45-0.24-2.01c1.04,0.16,2.04,0.24,3,0.24s1.839,0,2.64,0
		c0.6-1.186,1.25-2.363,1.95-3.53c0.699-1.167,1.38-2.234,2.04-3.204c0.66-0.968,1.28-1.789,1.86-2.462
		c0.58-0.672,1.03-1.107,1.35-1.305c0.399,0,0.91,0.07,1.53,0.21c0.62,0.141,1.25,0.32,1.89,0.54c0.64,0.22,1.22,0.45,1.74,0.69
		c0.52,0.24,0.879,0.48,1.08,0.72c-1.2,1.509-2.23,2.91-3.09,4.201c-0.86,1.292-1.791,2.771-2.79,4.439c0.8,0,1.61,0,2.43,0
		c0.819,0,1.65-0.06,2.49-0.18c0.2,0.201,0.36,0.45,0.48,0.75c0.12,0.3,0.18,0.61,0.18,0.93c-1.96,0.76-4.34,1.14-7.14,1.14
		c-1,1.925-1.89,3.84-2.67,5.745c-0.78,1.905-1.44,3.74-1.98,5.504c-0.54,1.764-0.96,3.429-1.26,4.993
		c-0.3,1.563-0.45,2.967-0.45,4.21c0,1.765,0.66,2.747,1.98,2.948c1.2-0.16,2.34-0.459,3.42-0.9c1.08-0.44,2.04-1,2.88-1.68
		c0.24,0.36,0.379,0.66,0.42,0.9c-0.24,0.358-0.651,0.775-1.23,1.251c-0.581,0.477-1.21,0.943-1.89,1.401
		c-0.681,0.456-1.34,0.843-1.98,1.162c-0.64,0.317-1.12,0.496-1.44,0.536c-1,0-2-0.201-3-0.6c-1-0.401-1.911-0.902-2.73-1.502
		c-0.82-0.602-1.491-1.272-2.01-2.013c-0.52-0.741-0.78-1.472-0.78-2.193c0-0.961,0.129-2.172,0.39-3.634
		c0.26-1.461,0.63-3.053,1.11-4.775s1.04-3.524,1.68-5.407c0.639-1.882,1.339-3.744,2.1-5.586H72.539z"/>
	<path d="M110.819,18.63c0.398,0,0.869,0.07,1.41,0.21c0.539,0.141,1.029,0.32,1.469,0.54c0.44,0.221,0.811,0.45,1.11,0.69
		c0.3,0.24,0.45,0.46,0.45,0.66c-0.801,1.68-1.54,3.371-2.22,5.07c-0.681,1.701-1.261,3.33-1.74,4.89s-0.851,3.021-1.11,4.38
		c-0.26,1.36-0.39,2.541-0.39,3.54c0,1.12,0.12,2.05,0.36,2.79c0.24,0.741,0.639,1.271,1.199,1.59
		c-0.479,0.319-1.1,0.579-1.859,0.78c-0.761,0.2-1.44,0.3-2.04,0.3c-2.16,0-3.24-1.479-3.24-4.44c0-2.28,0.759-5.4,2.28-9.36
		c-0.801,1.832-1.721,3.555-2.76,5.167c-1.041,1.614-2.101,3.038-3.181,4.272c-1.079,1.234-2.17,2.24-3.27,3.017
		c-1.101,0.775-2.11,1.244-3.03,1.403c-1.48,0-2.68-0.673-3.6-2.018c-0.92-1.345-1.38-3.063-1.38-5.152
		c0-2.249,0.48-4.619,1.44-7.109c0.96-2.49,2.19-4.8,3.69-6.929c1.5-2.129,3.129-3.906,4.89-5.333
		c1.76-1.426,3.46-2.139,5.101-2.139c0.398,0.12,0.849,0.36,1.35,0.719c0.5,0.359,0.979,0.778,1.439,1.256
		c0.46,0.479,0.85,0.968,1.17,1.466c0.32,0.499,0.5,0.928,0.541,1.287c-1.602,0.24-3.251,1.018-4.951,2.334
		c-1.7,1.317-3.239,2.903-4.619,4.759c-1.381,1.856-2.511,3.841-3.391,5.956c-0.88,2.115-1.32,4.09-1.32,5.926
		c0,0.758,0.28,1.238,0.84,1.437c1.159-0.24,2.499-1.23,4.021-2.97c1.52-1.74,3.359-4.43,5.52-8.07c0.399-0.72,0.85-1.52,1.35-2.4
		c0.5-0.879,1.01-1.8,1.53-2.76c0.52-0.96,1.029-1.929,1.53-2.91C109.909,20.5,110.377,19.551,110.819,18.63z"/>
	<path d="M113.938,62.73c-0.561-0.16-0.881-0.76-0.961-1.8c-0.16-0.521-0.27-1.14-0.33-1.86c-0.06-0.72-0.09-1.541-0.09-2.46
		c0-0.84,0.141-1.991,0.42-3.45c0.279-1.46,0.67-3.111,1.17-4.95c0.5-1.84,1.11-3.831,1.83-5.97c0.721-2.14,1.52-4.31,2.4-6.51
		c1.08-2.76,2.02-5.149,2.82-7.17c0.799-2.02,1.47-3.77,2.01-5.25c0.54-1.479,0.979-2.7,1.32-3.66c0.339-0.96,0.609-1.779,0.81-2.46
		c0.159-0.48,0.399-1.059,0.72-1.74c0.32-0.68,0.69-1.37,1.11-2.07c0.42-0.699,0.85-1.359,1.29-1.98c0.439-0.62,0.84-1.089,1.2-1.41
		c1.399,0.201,2.72,0.561,3.96,1.08c1.239,0.52,2,1.02,2.279,1.5c-0.561,0.52-1.199,1.33-1.92,2.43c-0.72,1.101-1.42,2.301-2.1,3.6
		c-0.681,1.3-1.301,2.631-1.859,3.99c-0.561,1.36-0.98,2.56-1.261,3.6c0.399-0.68,0.92-1.419,1.56-2.22
		c0.641-0.8,1.621-1.899,2.94-3.3c1.479-1.52,2.87-2.689,4.171-3.51c1.299-0.819,2.43-1.23,3.389-1.23c1.521,0,2.77,0.42,3.75,1.26
		c0.98,0.84,1.471,1.92,1.471,3.24c0,2.88-0.48,5.73-1.439,8.55c-0.961,2.82-2.341,5.37-4.141,7.65c-0.681,0.88-1.48,1.721-2.4,2.52
		c-0.92,0.801-1.881,1.511-2.879,2.13c-1.001,0.621-1.98,1.11-2.94,1.47c-0.96,0.36-1.821,0.54-2.58,0.54
		c-0.72,0-1.351-0.15-1.89-0.45c-0.541-0.3-0.91-0.669-1.11-1.11c1.56-0.919,3.079-2.199,4.56-3.84c1.479-1.64,2.85-3.53,4.11-5.67
		c1.26-2.14,2.359-4.45,3.3-6.93c0.939-2.479,1.65-5,2.13-7.56c-1.521,0.801-2.89,1.671-4.11,2.61c-1.221,0.94-2.43,2.17-3.629,3.69
		c-1.44,1.76-2.58,3.18-3.42,4.26c-0.841,1.08-1.531,2-2.07,2.76c-0.54,0.76-0.98,1.47-1.32,2.13s-0.711,1.47-1.109,2.43
		c-0.561,1.28-1.211,2.97-1.951,5.07s-1.5,4.449-2.279,7.05c-0.78,2.6-1.561,5.37-2.34,8.31c-0.78,2.94-1.53,5.87-2.25,8.79
		c-0.441-0.081-0.82-0.4-1.141-0.96c-0.32-0.36-0.55-0.621-0.689-0.78C114.307,62.93,114.137,62.81,113.938,62.73z"/>
	<path d="M148.256,38.85c0-0.36,0.03-0.81,0.09-1.35c0.061-0.54,0.17-1.26,0.33-2.16c0.16-0.9,0.369-1.99,0.631-3.27
		c0.259-1.28,0.589-2.82,0.989-4.62c0.079-0.399,0.26-1.04,0.54-1.92c0.279-0.879,0.65-1.81,1.109-2.79
		c0.46-0.98,1.021-1.93,1.681-2.85c0.66-0.92,1.449-1.6,2.37-2.04c0.68,0.16,1.58,0.57,2.699,1.23c1.12,0.66,2.08,1.57,2.881,2.73
		c-0.921,1.041-1.69,2.081-2.311,3.12c-0.62,1.041-1.18,2.121-1.68,3.24c-0.5,1.121-0.96,2.28-1.38,3.48
		c-0.42,1.2-0.891,2.46-1.41,3.78c-0.44,1.12-0.84,2.271-1.2,3.45c-0.359,1.181-0.561,2.211-0.6,3.09c0,0.72-0.01,1.23-0.03,1.53
		c-0.021,0.3-0.13,0.45-0.33,0.45c-0.16,0-0.479-0.101-0.96-0.3c-0.48-0.2-0.971-0.51-1.47-0.93c-0.501-0.42-0.95-0.95-1.351-1.59
		C148.456,40.491,148.256,39.73,148.256,38.85z M159.716,12.81c0-0.24,0.06-0.6,0.181-1.08c-0.201-0.2-0.371-0.5-0.511-0.9
		c-0.141-0.399-0.21-0.759-0.21-1.08c0-0.36,0.05-0.849,0.15-1.47c0.1-0.62,0.229-1.29,0.39-2.01c0.159-0.72,0.36-1.47,0.601-2.25
		c0.24-0.78,0.479-1.49,0.72-2.13c0.479,0,1.069,0.13,1.771,0.39c0.699,0.26,1.409,0.6,2.129,1.02c0.721,0.42,1.381,0.88,1.98,1.38
		c0.6,0.5,1.06,0.97,1.38,1.41c-0.44,0.44-1.021,1.05-1.739,1.83c-0.721,0.78-1.421,1.601-2.101,2.46
		c-0.681,0.861-1.3,1.671-1.86,2.43c-0.561,0.76-0.92,1.3-1.08,1.62c-0.479-0.08-0.899-0.29-1.26-0.63
		C159.897,13.461,159.716,13.131,159.716,12.81z"/>
	<path d="M162.716,32.31c0-2.28,0.47-4.49,1.409-6.63c0.939-2.14,2.18-4.04,3.721-5.7c1.539-1.659,3.3-3,5.279-4.02
		c1.98-1.02,4.029-1.53,6.15-1.53c2.08,0,3.68,0.52,4.801,1.56c1.119,1.041,1.68,2.52,1.68,4.44c0,0.92-0.131,1.81-0.391,2.67
		c-0.26,0.861-0.6,1.63-1.02,2.31c-0.42,0.681-0.91,1.23-1.471,1.65s-1.119,0.63-1.68,0.63c-0.479,0-0.971-0.15-1.47-0.45
		c-0.501-0.3-0.91-0.69-1.229-1.17c2.679-2.439,4.02-4.66,4.02-6.66c0-1.16-0.461-1.74-1.38-1.74c-0.801,0-1.8,0.381-3,1.14
		c-1.2,0.76-2.36,1.761-3.479,3c-1.721,1.92-3.031,4.05-3.931,6.39s-1.351,4.791-1.351,7.35c0,3.24,0.721,5.181,2.16,5.82
		c0.601-0.08,1.3-0.26,2.101-0.54c0.8-0.279,1.659-0.649,2.58-1.11c0.919-0.459,1.869-0.99,2.85-1.59
		c0.979-0.6,1.93-1.239,2.851-1.92c0.159,0.12,0.3,0.3,0.42,0.54c0.119,0.24,0.18,0.46,0.18,0.66c-0.681,0.84-1.461,1.66-2.34,2.46
		c-0.881,0.801-1.801,1.53-2.76,2.19c-0.961,0.66-1.891,1.22-2.791,1.68c-0.899,0.459-1.689,0.75-2.369,0.87
		c-1.32-0.12-2.561-0.531-3.721-1.23c-1.16-0.699-2.17-1.609-3.029-2.73c-0.861-1.119-1.541-2.4-2.04-3.84
		C162.965,35.37,162.716,33.87,162.716,32.31z"/>
</g>
<g>
	<path d="M8.033,61.555c-1.521,0-2.74-0.351-3.66-1.05c-0.92-0.7-1.38-1.67-1.38-2.91c0-0.201,0.05-0.51,0.15-0.93
		c0.1-0.42,0.189-0.73,0.27-0.93c0.84,0.08,1.64,0.12,2.4,0.12c0.76,0,1.72,0,2.88,0c2.52,0,41.484-2.91,43.705-2.91
		s4.23-0.098,6.03-0.292c1.8-0.194,110.182-3.034,111.463-3.18c1.279-0.146,2.26-0.219,2.939-0.219c0.92,0,1.75,0.46,2.49,1.38
		c0.74,0.92,1.27,2.24,1.59,3.96c-1.24-0.161-2.25-0.24-3.029-0.24s-1.471,0-2.07,0c-2.16,0-110.994,2.756-112.813,2.931
		c-1.821,0.172-3.54,0.356-5.16,0.549c-1.62,0.193-3.19,0.376-4.71,0.55C47.607,58.557,9.513,61.555,8.033,61.555z"/>
</g>
</svg>
