<?xml version="1.0" encoding="UTF-8" standalone="no"?>
<!-- Created with Inkscape (http://www.inkscape.org/) -->

<svg
   xmlns:dc="http://purl.org/dc/elements/1.1/"
   xmlns:cc="http://creativecommons.org/ns#"
   xmlns:rdf="http://www.w3.org/1999/02/22-rdf-syntax-ns#"
   xmlns:svg="http://www.w3.org/2000/svg"
   xmlns="http://www.w3.org/2000/svg"
   xmlns:sodipodi="http://sodipodi.sourceforge.net/DTD/sodipodi-0.dtd"
   xmlns:inkscape="http://www.inkscape.org/namespaces/inkscape"
   width="222.78825"
   height="77.760002"
   id="svg2"
   version="1.1"
   inkscape:version="0.48.4 r9939"
   sodipodi:docname="Nuevo documento 1">
  <defs
     id="defs4" />
  <sodipodi:namedview
     id="base"
     pagecolor="#ffffff"
     bordercolor="#666666"
     borderopacity="1.0"
     inkscape:pageopacity="0.0"
     inkscape:pageshadow="2"
     inkscape:zoom="1.08"
     inkscape:cx="87.8018"
     inkscape:cy="-72.125811"
     inkscape:document-units="px"
     inkscape:current-layer="flowRoot2985"
     showgrid="false"
     fit-margin-top="0"
     fit-margin-left="0"
     fit-margin-right="0"
     fit-margin-bottom="0"
     inkscape:window-width="1312"
     inkscape:window-height="864"
     inkscape:window-x="157"
     inkscape:window-y="77"
     inkscape:window-maximized="0" />
  <metadata
     id="metadata7">
    <rdf:RDF>
      <cc:Work
         rdf:about="">
        <dc:format>image/svg+xml</dc:format>
        <dc:type
           rdf:resource="http://purl.org/dc/dcmitype/StillImage" />
        <dc:title></dc:title>
      </cc:Work>
    </rdf:RDF>
  </metadata>
  <g
     inkscape:label="Capa 1"
     inkscape:groupmode="layer"
     id="layer1"
     transform="translate(-262.1982,-268.19066)">
    <g
       transform="translate(153.7037,43.518519)"
       style="font-size:40px;font-style:normal;font-weight:normal;line-height:125%;letter-spacing:0px;word-spacing:0px;fill:#000000;fill-opacity:1;stroke:none;font-family:Sans"
       id="flowRoot2985">
      <path
         d="m 108.4945,271.97614 c -1e-5,-1.728 0.26399,-3.95999 0.792,-6.696 0.57599,-2.78399 1.29599,-5.75998 2.16,-8.928 0.91199,-3.21598 1.94399,-6.47998 3.096,-9.792 1.15198,-3.35997 2.32798,-6.50397 3.528,-9.432 1.19998,-2.92796 2.37598,-5.49596 3.528,-7.704 1.15198,-2.20795 2.18398,-3.79195 3.096,-4.752 0.47997,0.048 1.10397,0.24005 1.872,0.576 0.81597,0.28805 1.63197,0.64805 2.448,1.08 0.81597,0.43205 1.55997,0.91205 2.232,1.44 0.67197,0.48005 1.10397,0.93605 1.296,1.368 -1.39203,1.24804 -2.78403,3.14404 -4.176,5.688 -1.34403,2.49604 -2.66403,5.35203 -3.96,8.568 -1.24802,3.21603 -2.42402,6.62402 -3.528,10.224 -1.10402,3.55202 -2.06402,7.00801 -2.88,10.368 -0.81602,3.36001 -1.46402,6.48 -1.944,9.36 -0.43202,2.88 -0.64802,5.208 -0.648,6.984 -2e-5,0.81599 0.072,1.31999 0.216,1.512 -1.05602,-0.048 -1.82401,-0.24001 -2.304,-0.576 -0.48001,-0.28801 -0.86401,-0.62401 -1.152,-1.008 -0.24001,-0.33601 -0.48001,-0.696 -0.72,-1.08 -0.19201,-0.336 -0.50401,-0.6 -0.936,-0.792 -0.33601,-0.144 -0.62401,-0.48 -0.864,-1.008 -0.24001,-0.528 -0.45601,-1.104 -0.648,-1.728 -0.14401,-0.672 -0.26401,-1.344 -0.36,-2.016 -0.096,-0.672 -0.14401,-1.224 -0.144,-1.656"
         style="font-size:72px;font-variant:normal;font-stretch:normal;font-family:Kaushan Script;-inkscape-font-specification:Kaushan Script"
         id="path3002" />
      <path
         d="m 139.0855,241.16014 c 1.24798,0.38403 2.42398,1.24803 3.528,2.592 1.10398,1.29603 1.91998,2.73603 2.448,4.32 -0.52802,1.29603 -1.34402,2.85602 -2.448,4.68 -1.10402,1.82402 -2.20802,3.69602 -3.312,5.616 -1.10402,1.87201 -2.11202,3.67201 -3.024,5.4 -0.86401,1.68001 -1.36801,3.07201 -1.512,4.176 0.76798,-0.81599 1.60798,-1.75199 2.52,-2.808 0.95998,-1.10399 1.87198,-2.18399 2.736,-3.24 0.91198,-1.10399 1.75198,-2.08799 2.52,-2.952 0.76798,-0.91198 1.36798,-1.58398 1.8,-2.016 0.91198,-0.95998 1.99197,-2.06398 3.24,-3.312 1.24797,-1.29598 2.54397,-2.49598 3.888,-3.6 1.39197,-1.15197 2.78397,-2.11197 4.176,-2.88 1.39196,-0.81597 2.66396,-1.22397 3.816,-1.224 1.24796,3e-5 2.27996,0.43203 3.096,1.296 0.86396,0.81603 1.53596,1.68003 2.016,2.592 -4e-5,0.096 -0.19204,0.24002 -0.576,0.432 -0.33604,0.14402 -0.84004,0.60002 -1.512,1.368 -0.67204,0.86402 -1.44004,2.06402 -2.304,3.6 -0.81604,1.48802 -1.63204,3.12002 -2.448,4.896 -0.76804,1.72801 -1.41604,3.50401 -1.944,5.328 -0.52803,1.82401 -0.79203,3.48001 -0.792,4.968 -3e-5,1.2 0.14397,1.968 0.432,2.304 0.33596,0.336 0.79196,0.504 1.368,0.504 0.52796,0 1.07996,-0.12 1.656,-0.36 0.57596,-0.24 1.03196,-0.36 1.368,-0.36 0.19196,0.096 0.33596,0.312 0.432,0.648 0.14396,0.288 0.21596,0.552 0.216,0.792 -0.38404,0.336 -0.84004,0.672 -1.368,1.008 -0.52804,0.336 -1.08004,0.648 -1.656,0.936 -0.57604,0.288 -1.15204,0.528 -1.728,0.72 -0.52803,0.192 -1.00803,0.288 -1.44,0.288 -1.39203,0 -2.54403,-0.216 -3.456,-0.648 -0.86403,-0.384 -1.56003,-0.912 -2.088,-1.584 -0.48003,-0.672 -0.81603,-1.464 -1.008,-2.376 -0.19203,-0.96 -0.28803,-1.968 -0.288,-3.024 -3e-5,-0.57599 0.048,-1.22399 0.144,-1.944 0.096,-0.71999 0.28797,-1.55999 0.576,-2.52 0.28797,-1.00799 0.69597,-2.18399 1.224,-3.528 0.52797,-1.39199 1.19997,-3.04798 2.016,-4.968 -0.096,2e-5 -0.74403,0.33602 -1.944,1.008 -1.20003,0.67202 -2.49603,1.70402 -3.888,3.096 -2.25602,2.16001 -4.29602,4.29601 -6.12,6.408 -1.77602,2.11201 -3.60002,4.464 -5.472,7.056 -1.05601,1.488 -1.99201,2.736 -2.808,3.744 -0.76801,1.056 -1.44001,1.752 -2.016,2.088 -1.00801,-0.576 -1.75201,-1.392 -2.232,-2.448 -0.48001,-1.008 -0.84001,-2.064 -1.08,-3.168 -1e-5,-0.912 0.11999,-2.064 0.36,-3.456 0.28799,-1.39199 0.64799,-2.92799 1.08,-4.608 0.47999,-1.72799 1.05599,-3.52799 1.728,-5.4 0.67199,-1.87198 1.41599,-3.74398 2.232,-5.616 1.82399,-4.22398 3.47999,-7.53597 4.968,-9.936 1.53598,-2.39997 2.49598,-3.69597 2.88,-3.888"
         style="font-size:72px;font-variant:normal;font-stretch:normal;font-family:Kaushan Script;-inkscape-font-specification:Kaushan Script"
         id="path3004" />
      <path
         d="m 191.074,247.42414 c -0.048,0.91203 -0.21603,1.87203 -0.504,2.88 -0.24003,0.96002 -0.55203,1.84802 -0.936,2.664 -0.38403,0.76802 -0.79203,1.41602 -1.224,1.944 -0.43203,0.52802 -0.84003,0.79202 -1.224,0.792 -0.52803,-0.048 -0.84003,-0.40798 -0.936,-1.08 -3e-5,-0.14398 0.048,-0.35998 0.144,-0.648 0.14397,-0.33598 0.28797,-0.69598 0.432,-1.08 0.14397,-0.38398 0.26397,-0.76798 0.36,-1.152 0.14397,-0.38398 0.21597,-0.71998 0.216,-1.008 -3e-5,-0.67198 -0.16803,-1.22397 -0.504,-1.656 -0.28803,-0.47997 -0.69603,-0.71997 -1.224,-0.72 -1.92002,3e-5 -3.38402,1.20003 -4.392,3.6 -1.00802,2.40002 -1.51202,5.92802 -1.512,10.584 -2e-5,0.48001 0.024,0.76801 0.072,0.864 1.00798,-0.048 1.89598,-0.072 2.664,-0.072 0.81598,-0.048 1.60798,-0.072 2.376,-0.072 0.048,0.096 0.072,0.28801 0.072,0.576 -3e-5,0.43201 -0.096,0.74401 -0.288,0.936 -1.10402,0.24001 -1.99202,0.45601 -2.664,0.648 -0.62402,0.14401 -1.10402,0.28801 -1.44,0.432 -0.33602,0.14401 -0.55202,0.31201 -0.648,0.504 -0.048,0.14401 -0.072,0.36001 -0.072,0.648 -2e-5,0.38401 -2e-5,0.76801 0,1.152 0.048,0.38401 0.072,0.86401 0.072,1.44 -2e-5,4.032 -1.10402,7.272 -3.312,9.72 -2.16002,2.44799 -5.18401,3.86399 -9.072,4.248 -0.67201,-0.048 -1.36801,-0.24001 -2.088,-0.576 -0.72001,-0.33601 -1.416,-0.76801 -2.088,-1.296 -0.624,-0.52801 -1.176,-1.12801 -1.656,-1.8 -0.48,-0.624 -0.816,-1.272 -1.008,-1.944 0,-1.824 0.384,-3.552 1.152,-5.184 0.768,-1.68 1.8,-3.14399 3.096,-4.392 1.34399,-1.29599 2.90399,-2.32799 4.68,-3.096 1.82399,-0.81599 3.79199,-1.29599 5.904,-1.44 -2e-5,-1.19999 -0.12002,-2.37599 -0.36,-3.528 -0.24002,-1.15198 -0.50402,-2.25598 -0.792,-3.312 -0.24001,-1.10398 -0.48001,-2.15998 -0.72,-3.168 -0.24001,-1.05598 -0.36001,-2.08798 -0.36,-3.096 -1e-5,-1.29597 0.26399,-2.56797 0.792,-3.816 0.52798,-1.29597 1.22398,-2.47197 2.088,-3.528 0.86398,-1.10397 1.87198,-2.03997 3.024,-2.808 1.15198,-0.76797 2.35198,-1.29596 3.6,-1.584 0.52798,0.14404 1.22398,0.57604 2.088,1.296 0.91197,0.67203 1.79997,1.44003 2.664,2.304 0.86397,0.86403 1.63197,1.75203 2.304,2.664 0.67197,0.86403 1.07997,1.58403 1.224,2.16 m -23.76,32.832 c 1.15199,-0.48 2.23199,-1.176 3.24,-2.088 1.05599,-0.912 1.96799,-1.944 2.736,-3.096 0.76799,-1.152 1.36798,-2.376 1.8,-3.672 0.47998,-1.296 0.71998,-2.56799 0.72,-3.816 -0.96002,0.14401 -2.01601,0.60001 -3.168,1.368 -1.15201,0.72001 -2.23201,1.608 -3.24,2.664 -1.00801,1.008 -1.84801,2.064 -2.52,3.168 -0.67201,1.104 -1.00801,2.064 -1.008,2.88 -1e-5,1.056 0.47999,1.92 1.44,2.592"
         style="font-size:72px;font-variant:normal;font-stretch:normal;font-family:Kaushan Script;-inkscape-font-specification:Kaushan Script"
         id="path3006" />
      <path
         d="m 195.37262,248.50414 c -0.24001,-0.28797 -0.45601,-0.88797 -0.648,-1.8 -0.19201,-0.95997 -0.28801,-1.77597 -0.288,-2.448 1.24799,0.096 2.44799,0.19203 3.60001,0.288 1.15198,0.048 2.20798,0.096 3.16799,0.144 0.71999,-1.43997 1.48799,-2.85597 2.304,-4.248 0.86398,-1.43996 1.67998,-2.73596 2.448,-3.888 0.81598,-1.19996 1.55998,-2.20796 2.232,-3.024 0.71998,-0.81596 1.27198,-1.34396 1.656,-1.584 0.47998,4e-5 1.07998,0.096 1.8,0.288 0.76798,0.14404 1.53598,0.36004 2.304,0.648 0.76797,0.24004 1.46397,0.50404 2.08801,0.792 0.62396,0.28804 1.05596,0.57604 1.29599,0.864 -1.44003,1.82404 -2.68803,3.52804 -3.744,5.112 -1.00802,1.53603 -2.11202,3.31203 -3.312,5.328 0.95998,3e-5 1.91998,-0.024 2.88,-0.072 1.00797,-0.048 2.01597,-0.11997 3.024,-0.216 0.23997,0.24003 0.43197,0.55203 0.576,0.936 0.14397,0.33603 0.21597,0.69603 0.216,1.08 -2.35203,0.86403 -5.20802,1.34403 -8.568,1.44 -1.20002,2.30402 -2.28002,4.60802 -3.24,6.912 -0.91202,2.25602 -1.70401,4.44002 -2.376,6.552 -0.62401,2.11201 -1.12801,4.10401 -1.512,5.976 -0.33601,1.87201 -0.50401,3.552 -0.504,5.04 -1e-5,2.112 0.79199,3.288 2.376,3.528 1.43998,-0.192 2.80798,-0.552 4.104,-1.08 1.29598,-0.528 2.44798,-1.2 3.456,-2.016 0.28798,0.432 0.45598,0.792 0.504,1.08 -0.28802,0.432 -0.79202,0.936 -1.512,1.512 -0.67202,0.576 -1.41602,1.128 -2.232,1.656 -0.81602,0.576 -1.60802,1.056 -2.376,1.44 -0.76802,0.384 -1.34401,0.6 -1.728,0.648 -1.20001,-0.048 -2.40001,-0.312 -3.6,-0.792 -1.20001,-0.48 -2.30401,-1.08 -3.312,-1.8 -0.96001,-0.72 -1.75201,-1.512 -2.376,-2.376 -0.624,-0.912 -0.936,-1.8 -0.936,-2.664 0,-1.152 0.144,-2.59199 0.432,-4.32 0.336,-1.77599 0.79199,-3.69599 1.368,-5.76 0.57599,-2.06398 1.24799,-4.22398 2.016,-6.48 0.76799,-2.25598 1.60799,-4.48798 2.52001,-6.696 l -4.10401,0"
         style="font-size:72px;font-variant:normal;font-stretch:normal;font-family:Kaushan Script;-inkscape-font-specification:Kaushan Script"
         id="path3008" />
      <path
         d="m 241.27712,246.99214 c 0.47997,3e-5 1.03197,0.096 1.65601,0.288 0.67196,0.14403 1.27196,0.36003 1.79999,0.648 0.52797,0.24003 0.95997,0.50403 1.296,0.792 0.38397,0.28803 0.57597,0.55203 0.576,0.792 -0.96003,2.01602 -1.84803,4.05602 -2.664,6.12 -0.81603,2.01602 -1.51203,3.96002 -2.088,5.832 -0.57603,1.87201 -1.03203,3.62401 -1.368,5.256 -0.28803,1.63201 -0.43203,3.04801 -0.432,4.248 -3e-5,1.344 0.14397,2.472 0.432,3.384 0.28797,0.864 0.76797,1.488 1.44,1.872 -0.57603,0.384 -1.32003,0.696 -2.232,0.936 -0.91202,0.24 -1.72802,0.36 -2.448,0.36 -2.59202,0 -3.88802,-1.776 -3.888,-5.328 -2e-5,-2.73599 0.91198,-6.47999 2.736,-11.232 -0.96002,2.20801 -2.06402,4.29601 -3.312,6.264 -1.24802,1.92001 -2.52002,3.624 -3.816,5.112 -1.29601,1.488 -2.61601,2.712 -3.96,3.672 -1.29601,0.912 -2.49601,1.464 -3.6,1.656 -1.77601,-0.096 -3.216,-0.936 -4.32,-2.52 -1.104,-1.632 -1.656,-3.696 -1.656,-6.192 0,-2.68799 0.576,-5.51999 1.728,-8.496 1.152,-2.97598 2.61599,-5.73598 4.392,-8.28 1.82399,-2.54397 3.79199,-4.65597 5.904,-6.336 2.11198,-1.72797 4.15198,-2.63997 6.12,-2.736 0.47998,0.14403 1.00798,0.43203 1.584,0.864 0.62398,0.43203 1.19998,0.93603 1.72801,1.512 0.57597,0.57603 1.05597,1.17603 1.44,1.8 0.38397,0.57603 0.59997,1.08003 0.64799,1.512 -1.92002,0.28803 -3.91202,1.22402 -5.976,2.808 -2.01602,1.58402 -3.86401,3.50402 -5.544,5.76 -1.63201,2.20802 -2.97601,4.58401 -4.032,7.128 -1.05601,2.54401 -1.58401,4.92001 -1.58399,7.128 -2e-5,0.912 0.33598,1.488 1.00799,1.728 1.39199,-0.288 2.99999,-1.464 4.824,-3.528 1.82398,-2.11199 4.03198,-5.35199 6.624,-9.72 0.47998,-0.86398 1.00798,-1.82398 1.584,-2.88 0.62398,-1.05598 1.24798,-2.15998 1.872,-3.312 0.62398,-1.15198 1.22398,-2.30398 1.8,-3.456 0.62397,-1.19997 1.19997,-2.35197 1.728,-3.456"
         style="font-size:72px;font-variant:normal;font-stretch:normal;font-family:Kaushan Script;-inkscape-font-specification:Kaushan Script"
         id="path3010" />
      <path
         d="m 245.07175,299.91214 c -0.672,-0.19202 -1.056,-0.91202 -1.152,-2.16 -0.192,-0.62402 -0.336,-1.36802 -0.432,-2.232 -0.048,-0.86402 -0.072,-1.84802 -0.072,-2.952 0,-1.00802 0.168,-2.40002 0.504,-4.176 0.336,-1.72801 0.792,-3.69601 1.368,-5.904 0.624,-2.20801 1.368,-4.584 2.232,-7.128 0.86399,-2.592 1.82399,-5.208 2.88,-7.848 1.29599,-3.31199 2.42399,-6.16799 3.384,-8.568 0.95999,-2.44798 1.75199,-4.55998 2.376,-6.336 0.67199,-1.77598 1.19999,-3.23997 1.584,-4.392 0.43199,-1.15197 0.76798,-2.13597 1.008,-2.952 0.19198,-0.57597 0.47998,-1.27197 0.864,-2.088 0.38398,-0.81597 0.81598,-1.63197 1.296,-2.448 0.52798,-0.86397 1.05598,-1.65596 1.584,-2.376 0.52798,-0.76796 1.00798,-1.34396 1.44,-1.728 1.67998,0.24004 3.26398,0.67204 4.752,1.296 1.48797,0.62404 2.39997,1.22404 2.736,1.8 -0.67203,0.62403 -1.44003,1.60803 -2.304,2.952 -0.86402,1.29603 -1.70402,2.73603 -2.52,4.32 -0.81602,1.53603 -1.56002,3.12002 -2.232,4.752 -0.67202,1.63202 -1.17602,3.07202 -1.512,4.32 0.47998,-0.81598 1.10398,-1.70398 1.872,-2.664 0.76798,-0.95998 1.94398,-2.27998 3.528,-3.96 1.77597,-1.82397 3.43197,-3.21597 4.968,-4.176 1.58397,-1.00797 2.95197,-1.51197 4.104,-1.512 1.82396,3e-5 3.31196,0.50403 4.464,1.512 1.19996,1.00803 1.79996,2.30403 1.8,3.888 -4e-5,3.45602 -0.57604,6.88802 -1.728,10.296 -1.15204,3.36001 -2.80804,6.40801 -4.968,9.144 -0.81603,1.05601 -1.77603,2.064 -2.88,3.024 -1.10403,0.96 -2.25603,1.824 -3.456,2.592 -1.20003,0.72 -2.37602,1.296 -3.528,1.728 -1.15202,0.432 -2.18402,0.648 -3.096,0.648 -0.86402,0 -1.63202,-0.168 -2.304,-0.504 -0.62402,-0.384 -1.05602,-0.84 -1.296,-1.368 1.87198,-1.104 3.69598,-2.64 5.472,-4.608 1.77598,-1.96799 3.40797,-4.22399 4.896,-6.768 1.53597,-2.59199 2.85597,-5.37598 3.96,-8.352 1.15197,-2.97598 2.01597,-5.99997 2.592,-9.072 -1.82403,0.96003 -3.48003,2.01603 -4.968,3.168 -1.44003,1.10402 -2.88003,2.56802 -4.32,4.392 -1.72802,2.11202 -3.09602,3.81602 -4.104,5.112 -1.00802,1.29601 -1.84802,2.40001 -2.52,3.312 -0.62402,0.91201 -1.15202,1.77601 -1.584,2.592 -0.38402,0.76801 -0.81602,1.72801 -1.296,2.88 -0.67201,1.53601 -1.46401,3.576 -2.376,6.12 -0.86401,2.496 -1.77601,5.304 -2.736,8.424 -0.91201,3.11999 -1.84801,6.43199 -2.808,9.936 -0.91201,3.55198 -1.80001,7.07998 -2.664,10.584 -0.528,-0.096 -0.984,-0.48003 -1.368,-1.152 -0.384,-0.43203 -0.672,-0.74403 -0.864,-0.936 -0.144,-0.19203 -0.336,-0.33603 -0.576,-0.432"
         style="font-size:72px;font-variant:normal;font-stretch:normal;font-family:Kaushan Script;-inkscape-font-specification:Kaushan Script"
         id="path3012" />
      <path
         d="m 286.25912,271.25614 c 0,-0.432 0.024,-0.96 0.072,-1.584 0.096,-0.67199 0.24,-1.53599 0.432,-2.592 0.192,-1.10399 0.432,-2.42399 0.72,-3.96 0.336,-1.53599 0.744,-3.38398 1.22401,-5.544 0.096,-0.47998 0.31199,-1.24798 0.64799,-2.304 0.33599,-1.05598 0.76799,-2.15998 1.296,-3.312 0.57599,-1.19998 1.24799,-2.35197 2.016,-3.456 0.81599,-1.10397 1.77599,-1.91997 2.88,-2.448 0.81599,0.19203 1.89599,0.69603 3.24,1.512 1.34398,0.76803 2.49598,1.84803 3.45601,3.24 -1.10403,1.24802 -2.04003,2.49602 -2.808,3.744 -0.72002,1.24802 -1.39202,2.54402 -2.01601,3.888 -0.57601,1.34401 -1.12801,2.73601 -1.656,4.176 -0.48001,1.44001 -1.03201,2.95201 -1.656,4.536 -0.52801,1.34401 -1.00801,2.736 -1.44,4.176 -0.43201,1.392 -0.67201,2.616 -0.71999,3.672 -2e-5,0.864 -0.024,1.464 -0.072,1.8 -2e-5,0.384 -0.12002,0.576 -0.36001,0.576 -0.19201,0 -0.57601,-0.12 -1.15199,-0.36 -0.57602,-0.24 -1.17601,-0.6 -1.8,-1.08 -0.57601,-0.528 -1.10401,-1.176 -1.58401,-1.944 -0.48,-0.768 -0.72,-1.68 -0.72,-2.736 m 13.752,-31.248 c -2e-5,-0.28796 0.072,-0.71996 0.216,-1.296 -0.24002,-0.23996 -0.45602,-0.59996 -0.648,-1.08 -0.14402,-0.47996 -0.21602,-0.91196 -0.21599,-1.296 -3e-5,-0.43196 0.048,-1.00796 0.14399,-1.728 0.14398,-0.76796 0.31198,-1.58396 0.504,-2.448 0.19198,-0.86396 0.43198,-1.75196 0.72001,-2.664 0.28797,-0.95995 0.57597,-1.82395 0.86399,-2.592 0.57598,5e-5 1.27198,0.16805 2.08801,0.504 0.86397,0.28805 1.72797,0.69605 2.59199,1.224 0.86398,0.48005 1.65598,1.03205 2.376,1.656 0.71997,0.57604 1.27197,1.12804 1.656,1.656 -0.52803,0.52804 -1.22402,1.27204 -2.08799,2.232 -0.86403,0.91204 -1.70403,1.89604 -2.52001,2.952 -0.81602,1.00804 -1.56002,1.96804 -2.232,2.88 -0.67202,0.91203 -1.10402,1.56003 -1.29599,1.944 -0.57603,-0.096 -1.08003,-0.33597 -1.512,-0.72 -0.43203,-0.43197 -0.64803,-0.83997 -0.64801,-1.224"
         style="font-size:72px;font-variant:normal;font-stretch:normal;font-family:Kaushan Script;-inkscape-font-specification:Kaushan Script"
         id="path3014" />
      <path
         d="m 303.63475,263.40814 c -10e-6,-2.73599 0.55199,-5.37598 1.656,-7.92 1.15199,-2.59198 2.63999,-4.87198 4.464,-6.84 1.87198,-2.01597 3.98398,-3.62397 6.336,-4.824 2.39998,-1.24797 4.87198,-1.87197 7.416,-1.872 2.49597,3e-5 4.41597,0.62403 5.76,1.872 1.34397,1.24803 2.01596,3.02403 2.016,5.328 -4e-5,1.10402 -0.16803,2.18402 -0.504,3.24 -0.28803,1.00802 -0.69603,1.92002 -1.224,2.736 -0.48003,0.81602 -1.05603,1.48802 -1.728,2.016 -0.67203,0.48002 -1.34403,0.72002 -2.016,0.72 -0.57603,2e-5 -1.17603,-0.16798 -1.8,-0.504 -0.57603,-0.38398 -1.05603,-0.86398 -1.44,-1.44 3.21597,-2.92798 4.82397,-5.59198 4.824,-7.992 -3e-5,-1.39197 -0.55203,-2.08797 -1.656,-2.088 -0.96003,3e-5 -2.16003,0.45603 -3.6,1.368 -1.44002,0.91203 -2.83202,2.11203 -4.176,3.6 -2.06402,2.30402 -3.64802,4.87202 -4.752,7.704 -1.05602,2.78401 -1.58402,5.71201 -1.584,8.784 -2e-5,3.888 0.86398,6.216 2.592,6.984 0.71998,-0.096 1.55998,-0.312 2.52,-0.648 0.95998,-0.336 1.99198,-0.768 3.096,-1.296 1.10398,-0.576 2.23197,-1.224 3.384,-1.944 1.19997,-0.71999 2.35197,-1.48799 3.456,-2.304 0.19197,0.14401 0.35997,0.36001 0.504,0.648 0.14397,0.28801 0.21597,0.55201 0.216,0.792 -0.81603,1.008 -1.75203,1.992 -2.808,2.952 -1.05603,0.96 -2.16003,1.848 -3.312,2.664 -1.15202,0.768 -2.28002,1.416 -3.384,1.944 -1.05602,0.576 -1.99202,0.936 -2.808,1.08 -1.58402,-0.144 -3.07202,-0.648 -4.464,-1.512 -1.39201,-0.816 -2.61601,-1.896 -3.672,-3.24 -1.00801,-1.344 -1.82401,-2.88 -2.448,-4.608 -0.57601,-1.72799 -0.86401,-3.52799 -0.864,-5.4"
         style="font-size:72px;font-variant:normal;font-stretch:normal;font-family:Kaushan Script;-inkscape-font-specification:Kaushan Script"
         id="path3016" />
    </g>
  </g>
</svg>
